<?xml version="1.0" encoding="UTF-8"?>
<svg id="Layer_1" data-name="Layer 1" xmlns="http://www.w3.org/2000/svg" viewBox="0 0 1134.13 57.46">
  <defs>
    <style>
      .cls-1 {
        fill: #51382d;
      }
    </style>
  </defs>
  <g>
    <path class="cls-1" d="M299.19,30.6c3.88,0,7.21-.66,10-1.97,2.78-1.31,4.89-3.12,6.34-5.43,1.44-2.31,2.16-4.93,2.16-7.87,0-2.15-.43-4.14-1.3-5.98-.87-1.84-2.16-3.38-3.9-4.64-3.04-2.36-7.61-3.54-13.7-3.54h-17.12v55.1h7.01v-25.59l10.51-.07ZM288.68,4.63h9.8c4.09,0,7.11.98,9.05,2.95,1.94,1.97,2.91,4.55,2.91,7.75,0,8.08-4.54,11.63-13.62,11.63h-8.14V4.63Z"/>
    <path class="cls-1" d="M337.59,53.8c-4.41-2.44-7.87-5.85-10.39-10.23-2.52-4.38-3.78-9.35-3.78-14.92s1.26-10.52,3.78-14.88c2.52-4.36,5.98-7.74,10.39-10.15,4.41-2.41,9.37-3.62,14.88-3.62s10.48,1.21,14.92,3.62c4.43,2.41,7.92,5.8,10.47,10.15,2.54,4.36,3.82,9.31,3.82,14.88s-1.27,10.54-3.82,14.92c-2.55,4.38-6.04,7.79-10.47,10.23-4.43,2.44-9.41,3.66-14.92,3.66s-10.47-1.22-14.88-3.66ZM363.52,50.77c3.28-2.05,5.86-4.97,7.75-8.78,1.89-3.8,2.83-8.23,2.83-13.26s-.94-9.38-2.83-13.18c-1.89-3.8-4.47-6.74-7.75-8.82-3.28-2.07-6.97-3.11-11.06-3.11s-7.7,1.04-10.98,3.11c-3.28,2.07-5.85,5.01-7.71,8.82-1.86,3.81-2.79,8.2-2.79,13.18s.93,9.46,2.79,13.26c1.86,3.81,4.42,6.73,7.67,8.78,3.25,2.05,6.93,3.07,11.02,3.07s7.78-1.02,11.06-3.07ZM389.89,1.18h7.71l30.7,44.79c-.47-15.43-1.44-30.36-2.91-44.79h6.85v55.1h-5.35l-33.06-48.17c.32,12.28,1.36,28.34,3.15,48.17h-7.08V1.18ZM441.55,7.32V1.18h34.63v6.14c-4.15-1-8.74-1.81-13.77-2.44v51.4h-7.01V4.88c-4.93.58-9.55,1.39-13.85,2.44ZM576.26,1.18h7.01v55.1h-7.01V1.18ZM596.14,1.18h7.71l30.7,44.79c-.47-15.43-1.44-30.36-2.91-44.79h6.85v55.1h-5.35l-33.06-48.17c.32,12.28,1.36,28.34,3.15,48.17h-7.08V1.18ZM652.08,1.18h7.01v55.1h-7.01V1.18ZM531.81,1.19h15.43c6.09,0,10.65,1.18,13.7,3.54,1.73,1.26,3.03,2.81,3.9,4.64.87,1.84,1.3,3.83,1.3,5.98,0,2.94-.72,5.56-2.16,7.87-1.44,2.31-3.56,4.12-6.34,5.43-2.78,1.31-6.11,1.97-10,1.97h-3.31c6.03,6.82,14.09,15.38,24.16,25.66h-9.6l-20.07-25.59v25.59h-7.01V1.19ZM558.89,15.36c0-3.2-.97-5.79-2.91-7.75-1.94-1.97-4.96-2.95-9.05-2.95h-8.11v22.33h6.45c9.08,0,13.62-3.55,13.62-11.63ZM497.44,5.52l19.13,50.77h7.64L502.87,1.19h-7.71l-21.96,55.1h7.08M510.86,26.99h-22.47v3.62h22.47v-3.62Z"/>
  </g>
  <path class="cls-1" d="M109.28,1.18h15.43c6.09,0,10.65,1.18,13.7,3.54,1.73,1.26,3.03,2.81,3.9,4.64.87,1.84,1.3,3.83,1.3,5.98,0,2.94-.72,5.56-2.16,7.87-1.44,2.31-3.56,4.12-6.34,5.43-2.78,1.31-6.11,1.97-10,1.97h-3.31c6.03,6.82,14.09,15.38,24.16,25.66h-9.6l-20.07-25.59v25.59h-7.01V1.18ZM136.36,15.35c0-3.2-.97-5.79-2.91-7.75-1.94-1.97-4.96-2.95-9.05-2.95h-8.11v22.33h6.45c9.08,0,13.62-3.55,13.62-11.63ZM74.91,5.51l19.13,50.77h7.64L80.34,1.18h-7.71l-21.96,55.1h7.08M86.57,26.98h-20.7v3.62h20.7v-3.62ZM173.52,1.16h15.43c6.09,0,10.65,1.18,13.7,3.54,1.73,1.26,3.03,2.81,3.9,4.64.87,1.84,1.3,3.83,1.3,5.98,0,2.94-.72,5.56-2.16,7.87-1.44,2.31-3.56,4.12-6.34,5.43-2.78,1.31-6.11,1.97-10,1.97h-3.31c6.03,6.82,14.09,15.38,24.16,25.66h-9.6l-20.07-25.59v25.59h-7.01V1.16ZM200.6,15.33c0-3.2-.97-5.79-2.91-7.75-1.94-1.97-4.96-2.95-9.05-2.95h-8.11v22.33h6.45c9.08,0,13.62-3.55,13.62-11.63ZM154.19,1.16h7.01v55.1h-7.01V1.16ZM219.57,1.16h7.01v55.1h-7.01V1.16ZM36.13,1.16v55.1h7.01V1.16h-7.01ZM7.01,1.16H0v55.1h7.01V1.16ZM39.76,26.97H3.85v3.62h35.91v-3.62Z"/>
  <g>
    <path class="cls-1" d="M817.67,53.65c-3.99-2.49-7.11-5.93-9.37-10.31-2.26-4.38-3.39-9.35-3.39-14.92s1.15-10.35,3.46-14.68c2.31-4.33,5.51-7.7,9.6-10.11C822.08,1.21,826.67,0,831.76,0c7.19,0,13.51,1.89,18.97,5.67v8.34c-5.72-6.82-12.38-10.23-19.99-10.23-3.57,0-6.78.94-9.64,2.83-2.86,1.89-5.1,4.6-6.73,8.15-1.63,3.54-2.44,7.67-2.44,12.4s.91,8.76,2.72,12.44c1.81,3.67,4.29,6.53,7.44,8.58,3.15,2.05,6.66,3.07,10.55,3.07,4.3,0,8-.87,11.1-2.6,3.1-1.73,5.43-3.62,7.01-5.67v4.17c-1.47,2.57-3.88,4.92-7.24,7.05-3.36,2.13-7.43,3.19-12.2,3.19-5.09,0-9.63-1.25-13.62-3.74Z"/>
    <rect class="cls-1" x="917.35" y="1.18" width="7.01" height="55.1"/>
    <path class="cls-1" d="M933.71,7.32V1.18h34.63v6.14c-4.15-1-8.74-1.81-13.77-2.44v51.4h-7.01V4.88c-4.93.58-9.55,1.39-13.85,2.44Z"/>
    <path class="cls-1" d="M975.41,1.18h29.6v5.98c-7.29-1.15-14.85-1.97-22.67-2.44v22.26c7.82-.26,14.61-.63,20.39-1.1v5.83c-7.29-.52-14.09-.89-20.39-1.1v21.98c7.35-.47,14.9-1.39,22.67-2.75v6.45h-29.6V1.18Z"/>
    <path class="cls-1" d="M1023.14,53.65c-3.99-2.49-7.11-5.93-9.37-10.31-2.26-4.38-3.39-9.35-3.39-14.92s1.15-10.35,3.46-14.68c2.31-4.33,5.51-7.7,9.6-10.11,4.09-2.41,8.68-3.62,13.77-3.62,7.19,0,13.51,1.89,18.97,5.67v8.34c-5.72-6.82-12.38-10.23-19.99-10.23-3.57,0-6.78.94-9.64,2.83-2.86,1.89-5.1,4.6-6.73,8.15-1.63,3.54-2.44,7.67-2.44,12.4s.91,8.76,2.72,12.44c1.81,3.67,4.29,6.53,7.44,8.58,3.15,2.05,6.66,3.07,10.55,3.07,4.3,0,8-.87,11.1-2.6,3.1-1.73,5.43-3.62,7.01-5.67v4.17c-1.47,2.57-3.88,4.92-7.24,7.05-3.36,2.13-7.43,3.19-12.2,3.19-5.09,0-9.63-1.25-13.62-3.74Z"/>
    <path class="cls-1" d="M1062.42,7.32V1.18h34.63v6.14c-4.15-1-8.74-1.81-13.77-2.44v51.4h-7.01V4.88c-4.93.58-9.55,1.39-13.85,2.44Z"/>
    <path class="cls-1" d="M1106.86,55.69c-2.75-1.18-4.79-2.45-6.1-3.82v-8.89c1.84,2.78,4.13,5.21,6.89,7.28,2.75,2.07,5.86,3.11,9.33,3.11s6.11-.91,8.26-2.72c2.15-1.81,3.23-4.29,3.23-7.44,0-2.57-.71-4.64-2.13-6.22-1.42-1.57-3.73-3.1-6.93-4.57l-7.24-3.31c-3.67-1.68-6.34-3.71-7.99-6.1-1.65-2.39-2.48-5.37-2.48-8.93,0-2.57.64-4.93,1.93-7.08,1.29-2.15,3.14-3.86,5.55-5.12,2.41-1.26,5.22-1.89,8.42-1.89s5.96.46,8.42,1.38c2.47.92,4.43,1.96,5.9,3.11v7.56c-2.26-2.78-4.71-4.83-7.36-6.14-2.65-1.31-5.34-1.97-8.07-1.97-3.04,0-5.41.84-7.08,2.52-1.68,1.68-2.52,3.62-2.52,5.83,0,1.99.5,3.78,1.5,5.35,1,1.57,2.94,2.99,5.83,4.25l6.69,2.99c3.94,1.68,7.12,3.85,9.56,6.49,2.44,2.65,3.66,6.07,3.66,10.27,0,3.2-.78,6-2.32,8.38-1.55,2.39-3.67,4.22-6.38,5.51-2.7,1.29-5.76,1.93-9.17,1.93s-6.65-.59-9.41-1.77Z"/>
    <path class="cls-1" d="M777.18,30.62h3.31c3.88,0,7.21-.66,10-1.97,2.78-1.31,4.89-3.12,6.34-5.43,1.44-2.31,2.16-4.93,2.16-7.87,0-2.15-.43-4.14-1.3-5.98-.87-1.84-2.16-3.38-3.9-4.64-3.04-2.36-7.61-3.54-13.7-3.54h-15.43v55.1h7.01v-25.59l20.07,25.59h9.6c-10.08-10.28-18.13-18.84-24.16-25.66ZM771.67,4.64h8.11c4.09,0,7.11.98,9.05,2.95,1.94,1.97,2.91,4.55,2.91,7.75,0,8.08-4.54,11.63-13.62,11.63h-6.45V4.64Z"/>
    <g>
      <polyline class="cls-1" points="730.1 5.51 749.23 56.28 756.86 56.28 735.53 1.18 727.82 1.18 705.85 56.28 712.94 56.28"/>
      <rect class="cls-1" x="721.05" y="26.99" width="22.73" height="3.62"/>
    </g>
    <g>
      <g>
        <rect class="cls-1" x="896.74" y="1.18" width="7.01" height="55.1"/>
        <rect class="cls-1" x="860.61" y="1.18" width="7.01" height="55.1"/>
      </g>
      <rect class="cls-1" x="864.46" y="26.98" width="35.91" height="3.62"/>
    </g>
  </g>
</svg>